<svg xmlns="http://www.w3.org/2000/svg" viewBox="0 0 64 64"><title>bank building</title><g id="bank_building" data-name="bank building"><path d="M56,24H8a1,1,0,0,1-1-1V17a1,1,0,0,1,.65-.94l24-9a1.05,1.05,0,0,1,.7,0l24,9A1,1,0,0,1,57,17v6A1,1,0,0,1,56,24ZM9,22H55V17.69L32,9.07,9,17.69Z"/><path d="M54,28H10a1,1,0,0,1-1-1V23a1,1,0,0,1,1-1H54a1,1,0,0,1,1,1v4A1,1,0,0,1,54,28ZM11,26H53V24H11Z"/><path d="M56,57H8a1,1,0,0,1-1-1V51a1,1,0,0,1,1-1H56a1,1,0,0,1,1,1v5A1,1,0,0,1,56,57ZM9,55H55V52H9Z"/><path d="M54,52H10a1,1,0,0,1-1-1V47a1,1,0,0,1,1-1H54a1,1,0,0,1,1,1v4A1,1,0,0,1,54,52ZM11,50H53V48H11Z"/><path d="M20,32H14a3,3,0,0,1-3-3V27a1,1,0,0,1,1-1H22a1,1,0,0,1,1,1v2A3,3,0,0,1,20,32Zm-7-4v1a1,1,0,0,0,1,1h6a1,1,0,0,0,1-1V28Z"/><path d="M22,48H12a1,1,0,0,1-1-1V45a3,3,0,0,1,3-3h6a3,3,0,0,1,3,3v2A1,1,0,0,1,22,48Zm-9-2h8V45a1,1,0,0,0-1-1H14a1,1,0,0,0-1,1Z"/><path d="M20,44H14a1,1,0,0,1-1-1V31a1,1,0,0,1,1-1h6a1,1,0,0,1,1,1V43A1,1,0,0,1,20,44Zm-5-2h4V32H15Z"/><path d="M50,32H44a3,3,0,0,1-3-3V27a1,1,0,0,1,1-1H52a1,1,0,0,1,1,1v2A3,3,0,0,1,50,32Zm-7-4v1a1,1,0,0,0,1,1h6a1,1,0,0,0,1-1V28Z"/><path d="M52,48H42a1,1,0,0,1-1-1V45a3,3,0,0,1,3-3h6a3,3,0,0,1,3,3v2A1,1,0,0,1,52,48Zm-9-2h8V45a1,1,0,0,0-1-1H44a1,1,0,0,0-1,1Z"/><path d="M50,44H44a1,1,0,0,1-1-1V31a1,1,0,0,1,1-1h6a1,1,0,0,1,1,1V43A1,1,0,0,1,50,44Zm-5-2h4V32H45Z"/><path d="M32,21a5,5,0,1,1,5-5A5,5,0,0,1,32,21Zm0-8a3,3,0,1,0,3,3A3,3,0,0,0,32,13Z"/><path d="M38,48H26a1,1,0,0,1-1-1V38a7,7,0,0,1,14,0v9A1,1,0,0,1,38,48ZM27,46H37V38a5,5,0,0,0-10,0Z"/></g></svg>