<?xml version="1.0" encoding="utf-8"?>
<!-- Generator: Adobe Illustrator 16.0.0, SVG Export Plug-In . SVG Version: 6.00 Build 0)  -->
<!DOCTYPE svg PUBLIC "-//W3C//DTD SVG 1.1//EN" "http://www.w3.org/Graphics/SVG/1.1/DTD/svg11.dtd">
<svg version="1.1" id="Layer_1" xmlns="http://www.w3.org/2000/svg" xmlns:xlink="http://www.w3.org/1999/xlink" x="0px" y="0px"
	 width="128px" height="128px" viewBox="0 0 128 128" enable-background="new 0 0 128 128" xml:space="preserve">
<g>
	<g>
		<g>
			<g>
				<path fill="#282D33" d="M53.141,96.887H0.606v-76.75h52.534V96.887z M4.606,92.887h44.534v-68.75H4.606V92.887z"/>
			</g>
			<g>
				<g>
					<g>
						<path fill="#282D33" d="M26.15,68.182c-9.556,0-17.331-7.821-17.331-17.435c0-9.614,7.774-17.435,17.331-17.435
							s17.331,7.821,17.331,17.435C43.481,60.36,35.707,68.182,26.15,68.182z M26.15,37.312c-7.351,0-13.331,6.027-13.331,13.435
							c0,7.408,5.98,13.435,13.331,13.435s13.331-6.027,13.331-13.435C39.481,43.339,33.501,37.312,26.15,37.312z"/>
					</g>
					<g>
						<path fill="#282D33" d="M26.15,68.182c-4.851,0-7.06-9.038-7.06-17.435s2.209-17.434,7.06-17.434
							c4.847,0,7.054,9.037,7.054,17.434S30.997,68.182,26.15,68.182z M26.149,37.341c-0.939,0.568-3.059,5.062-3.059,13.406
							c0,8.344,2.119,12.838,3.059,13.406c0.939-0.57,3.055-5.067,3.055-13.406S27.088,37.912,26.149,37.341z"/>
					</g>
					<g>
						<rect x="10.509" y="48.747" fill="#282D33" width="32.729" height="4"/>
					</g>
				</g>
			</g>
			<g>
				<rect x="15.417" y="78.4" fill="#282D33" width="22.912" height="4"/>
			</g>
		</g>
	</g>
	<g>
		<path fill="#282D33" d="M111.384,62.298h-6.539c-8.828,0-16.011-7.224-16.011-16.104V32.09h4v14.104
			c0,6.674,5.388,12.104,12.011,12.104h6.539c6.622,0,12.01-5.43,12.01-12.104V15.165h4v31.029
			C127.394,55.074,120.212,62.298,111.384,62.298z"/>
	</g>
	<g>
		<path fill="#282D33" d="M127.394,35.029H73.777l14.186-19.044h39.431V35.029z M81.744,31.029h41.649V19.985H89.971L81.744,31.029z
			"/>
	</g>
	<g>
		<path fill="#282D33" d="M127.394,19.044H87.793L77.153,0h50.24V19.044z M90.141,15.044h33.253V4H83.97L90.141,15.044z"/>
	</g>
	<g>
		<rect x="90.705" y="101.432" fill="#282D33" width="4" height="26.568"/>
	</g>
	<g>
		<path fill="#282D33" d="M127.394,128h-4V71.701h-16.679c-3.528,0-6.746,1.764-10.126,5.551l-2.984-2.664
			c4.137-4.634,8.425-6.887,13.11-6.887h20.679V128z"/>
	</g>
	<g>
		<polygon fill="#282D33" points="67.019,106.917 55.793,95.615 58.631,92.797 67.019,101.241 94.204,73.874 97.042,76.692 		"/>
	</g>
	<g>
		<rect x="93.637" y="116.122" fill="#282D33" width="33.624" height="4"/>
	</g>
	<g>
		<polygon fill="#282D33" points="75.324,122.477 58.715,122.477 38.748,102.373 41.585,99.555 60.38,118.477 73.66,118.477 
			99.342,92.62 102.18,95.438 		"/>
	</g>
</g>
</svg>
